<?xml version="1.0" standalone="no"?>
<!DOCTYPE svg PUBLIC "-//W3C//DTD SVG 1.1//EN" "http://www.w3.org/Graphics/SVG/1.1/DTD/svg11.dtd" >
<!--
2013-9-30: Created.
-->
<svg>
<metadata>
Created by iconfont
</metadata>
<defs>

<font id="iconfont" horiz-adv-x="1024" >
  <font-face
    font-family="iconfont"
    font-weight="500"
    font-stretch="normal"
    units-per-em="1024"
    ascent="896"
    descent="-128"
  />
    <missing-glyph />
    
    <glyph glyph-name="lujingbeifen11" unicode="&#58930;" d="M420.864 129.609143L1165.312 874.203429a74.605714 74.605714 0 0 0 105.325714 0l0.877715-0.877715a74.605714 74.605714 0 0 0 0-105.325714l-797.110858-797.257143-0.877714-0.877714a74.605714 74.605714 0 0 0-105.325714 0L21.796571 316.123429a74.605714 74.605714 0 0 0 0 105.325714l1.024 1.024a74.605714 74.605714 0 0 0 105.179429 0L420.864 129.462857z"  horiz-adv-x="1316" />

    
    <glyph glyph-name="xiala" unicode="&#58931;" d="M1674.24 858.624A118.272 118.272 0 0 1 1588.565333 896a118.272 118.272 0 0 1-85.845333-37.376l-653.653333-684.032L195.925333 858.624a116.906667 116.906667 0 0 1-163.328 0 129.024 129.024 0 0 1 0-171.008l736.768-771.072a113.322667 113.322667 0 0 1 75.093334-44.544c32.426667 0 63.829333 13.482667 86.698666 37.546667l736.768 771.413333A128.170667 128.170667 0 0 1 1674.24 858.624z"  horiz-adv-x="1707" />

    
    <glyph glyph-name="xitong1" unicode="&#58924;" d="M1059.216935 896c24.103385 0 43.559385-20.243692 43.559385-45.213538V128a44.347077 44.347077 0 0 0-43.559385-45.213538H596.526474v-120.438154h259.544615c24.103385 0 43.559385-20.243692 43.559385-45.13477a44.347077 44.347077 0 0 0-43.559385-45.213538H246.71232a44.347077 44.347077 0 0 0-43.559385 45.213538c0 24.891077 19.456 45.134769 43.559385 45.13477h262.774154v120.516923H43.566474A44.347077 44.347077 0 0 0 0.007089 128V850.786462C0.007089 875.756308 19.463089 896 43.566474 896h1015.650461z m-43.480615-542.089846H87.047089V263.483077h928.689231V353.910154z"  horiz-adv-x="1102" />

    
    <glyph glyph-name="louceng" unicode="&#58925;" d="M1035.279859-9.78238V580.98024c0 43.445957-34.88842 78.700084-78.041812 78.700084h-117.026148a39.203759 39.203759 0 0 0-38.984335 39.423183V817.226775C801.227564 860.745873 766.339144 896 723.185752 896H216.096827c-43.153392 0-78.041812-35.254127-78.041812-78.773225v-827.009155a39.203759 39.203759 0 0 0-38.984335-39.423184h-58.513074A39.203759 39.203759 0 0 1 0.037303-87.019637a39.276901 39.276901 0 0 1 40.520303-40.959152h1092.219662a39.276901 39.276901 0 0 1 37.521508 40.959152 39.203759 39.203759 0 0 1-37.521508 37.814073h-58.513074a39.203759 39.203759 0 0 0-38.984335 39.423184z m-662.66056 196.969634h-38.984335a39.203759 39.203759 0 0 0-38.984335 39.350042v39.423183c0 21.722979 17.407639 39.350042 38.984335 39.423184h38.984335c21.576696 0 39.057477-17.627063 39.057477-39.423184v-39.423183c0-21.722979-17.553922-39.350042-39.057477-39.350042z m0 236.319676h-38.984335a39.203759 39.203759 0 0 0-38.984335 39.350042v39.423184c0 21.722979 17.407639 39.350042 38.984335 39.350042h38.984335c21.576696 0 39.057477-17.553922 39.057477-39.350042v-39.423184c0-21.722979-17.553922-39.350042-39.057477-39.350042z m0 236.246535h-38.984335a39.203759 39.203759 0 0 0-38.984335 39.423183v39.423184c0 21.722979 17.407639 39.350042 38.911194 39.350042h39.057476c21.576696 0 39.057477-17.627063 39.057477-39.350042v-39.496325c0-21.649837-17.553922-39.276901-39.057477-39.276901z m234.052295-472.49307h-38.984335a39.203759 39.203759 0 0 0-38.984336 39.276901v39.423183c0 21.722979 17.407639 39.350042 38.984336 39.423184h38.984335c21.576696 0 39.057477-17.627063 39.057477-39.423184v-39.423183c0-21.722979-17.553922-39.350042-39.057477-39.350042z m0 236.246535h-38.984335a39.203759 39.203759 0 0 0-38.984336 39.350042v39.423184c0 21.722979 17.407639 39.350042 38.984336 39.350042h38.984335c21.576696 0 39.057477-17.553922 39.057477-39.350042v-39.423184c0-21.722979-17.553922-39.350042-39.057477-39.350042z m0 236.246535h-38.984335a39.203759 39.203759 0 0 0-38.984336 39.423183v39.423184c0 21.722979 17.407639 39.350042 38.911194 39.350042h39.057477c21.576696 0 39.057477-17.627063 39.057477-39.350042v-39.496325c0-21.649837-17.553922-39.276901-39.057477-39.276901z m272.451499-708.812746h-77.96867a39.203759 39.203759 0 0 0-39.057477 39.276901v157.619592c0 21.722979 17.480781 39.350042 39.057477 39.350042h77.96867c21.576696 0 39.057477-17.553922 39.057477-39.350042v-157.619592c0-21.722979-17.553922-39.276901-39.057477-39.276901z"  horiz-adv-x="1170" />

    
    <glyph glyph-name="texiao" unicode="&#58923;" d="M853.406476 184.32l35.498667-106.422857 113.444571-35.449905-113.444571-35.425524-35.498667-106.398476-35.449905 106.398476-106.325333 35.425524 106.325333 35.449905 35.449905 106.398476zM141.702095 824.807619l35.523048-106.374095 113.444571-35.449905-113.444571-35.449905-35.523048-106.398476-35.352381 106.471619L0 683.056762 106.325333 718.506667l35.352381 106.300952z m307.736381-503.222857c14.238476 14.238476 42.569143 14.238476 56.734476 0 14.214095-14.238476 14.214095-42.569143 0-56.710095L144.554667-89.770667c-7.119238-7.119238-21.357714-14.165333-28.40381-14.165333-7.119238 0-21.284571 0-28.403809 14.238476-14.140952 14.140952-14.140952 42.471619 0 56.710095L449.438476 321.584762z m212.796953-148.967619l-56.807619-21.260191-14.140953-49.615238-21.284571 49.615238-56.734476 21.333334 56.734476 14.165333 21.357714 56.734476 14.09219-56.734476 56.80762-14.238476z m411.306666 304.981333c0-14.238476-14.238476-14.238476-21.284571-21.284571L839.43619 427.885714l-92.16-191.439238c-7.143619-7.119238-14.189714-14.238476-28.330666-14.238476-14.238476 0-21.357714 7.119238-28.40381 14.238476l-92.16 191.439238-212.796952 28.476953c-14.165333 0-21.211429 7.046095-21.211429 21.211428 0 14.238476 0 21.284571 7.119238 28.379429l148.870096 148.894476-35.425524 205.677714c0 14.238476 0 21.284571 14.140952 28.330667 0 7.119238 14.238476 7.119238 28.330667 7.119238l191.463619-99.279238L903.43619 896c7.119238 0 21.211429 0 28.330667-7.119238 14.214095-7.119238 14.214095-14.140952 14.214095-28.330667L910.482286 654.872381l155.940571-148.894476c7.094857-7.094857 7.094857-21.333333 7.094857-28.379429z m-212.821333 148.967619c-7.046095 7.094857-7.046095 14.140952-7.046095 28.306286l21.284571 163.108571-148.967619-77.994666c-7.094857-7.119238-14.140952-7.119238-28.306286 0l-148.967619 78.019047 28.40381-170.25219c0-7.119238 0-21.211429-7.119238-28.330667l-120.56381-120.539428 170.22781-28.40381c14.238476 0 21.284571-7.119238 28.330666-14.165333l78.019048-148.894476 63.829333 163.059809c0 7.119238 14.238476 14.238476 21.357715 14.238476l170.081523 28.306286-120.490666 113.517714h-0.073143z"  horiz-adv-x="1097" />

    
    <glyph glyph-name="baobiao" unicode="&#58902;" d="M359.61776 768h283.52c18.88 0 34.176 16.704 34.176 37.312V858.624a39.104 39.104 0 0 1-9.952 26.4A32.8 32.8 0 0 1 643.13776 896h-283.584c-9.056 0-17.76-3.936-24.224-10.88a39.104 39.104 0 0 1-9.984-26.496v-53.312c0-9.92 3.616-19.392 10.048-26.4 6.176-6.88 14.976-10.88 24.224-10.912z m575.872 64h-105.632c-19.424 0-35.2-17.216-35.2-38.4v-51.2c0-21.184-15.712-38.4-35.2-38.4H243.26576c-19.456 0-35.2 17.216-35.2 38.4V793.6C208.00176 814.784 192.22576 832 172.80176 832H67.20176C47.74576 832 32.00176 814.784 32.00176 793.6v-826.88a99.04 99.04 0 0 1 25.28-66.944A83.104 83.104 0 0 1 118.59376-128h765.504c47.808 0 86.56 42.304 86.56 94.432V793.6c0 21.184-15.744 38.4-35.2 38.4z m-110.464-486.4l-236.032-196.48c-16.128-13.408-39.008-10.72-52.16 6.08l-130.592 166.784-162.24-125.76a35.52 35.52 0 0 0-38.496-4.8 41.6 41.6 0 0 0-22.464 34.432c-1.184 15.136 5.248 29.76 16.832 38.144l190.624 147.84c16.064 12.48 38.176 9.536 51.072-6.848l129.76-165.824 207.264 172.8c10.528 8.96 25.28 11.008 37.888 5.248 12.576-5.792 21.376-18.432 23.104-33.216 1.696-14.784-3.936-29.44-14.816-38.4h0.256z"  horiz-adv-x="1024" />

    
    <glyph glyph-name="xitong" unicode="&#58903;" d="M1006.495691 171.839813H585.951954c-9.567994 0-17.311989 11.263993-17.311989 25.151984V256.31976c0 13.823991 7.679995 25.151984 17.311989 25.151984h420.543737c9.631994 0 17.407989-11.327993 17.407989-25.151984v-59.327963c0-13.823991-7.775995-25.087984-17.407989-25.087984v-0.064z m0-149.983907H585.951954c-9.567994 0-17.311989 11.263993-17.311989 25.151985v59.295963c0 13.983991 7.679995 25.151984 17.311989 25.151984h420.543737c9.631994 0 17.407989-11.199993 17.407989-25.151984v-59.295963c0-13.823991-7.775995-25.151984-17.407989-25.151985z m0-149.855906H585.951954c-9.567994 0-17.311989 11.263993-17.311989 25.151984V-43.520053c0 13.823991 7.679995 25.151984 17.311989 25.151984h420.543737c9.631994 0 17.407989-11.295993 17.407989-25.151984v-59.327963c0-13.887991-7.775995-25.151984-17.407989-25.151984zM555.391973 347.327703h74.879953c3.295998 11.903993 4.991997 24.191985 5.055997 36.575977a139.999913 139.999913 0 0 1-155.839903 138.879913 140.415912 140.415912 0 0 1-122.879923-123.007923 140.063912 140.063912 0 0 1 138.943913-155.839902v43.263973a59.839963 59.839963 0 0 0 59.839963 60.127962z m-274.047829 36.575977a214.399866 214.399866 0 0 0 214.079866 214.207866 214.527866 214.527866 0 0 0 211.007868-250.783843h197.343877c2.655998 28.703982 2.143999 57.695964-1.599999 86.335946l59.967963 46.399971a62.751961 62.751961 0 0 1 20.191987 84.127947l-87.359945 151.487906a62.815961 62.815961 0 0 1-83.103948 24.479984l-69.887957-28.575982a407.199746 407.199746 0 0 1-86.175946 49.599969l-10.239993 74.975953A62.623961 62.623961 0 0 1 583.039956 895.99936h-175.103891a62.399961 62.399961 0 0 1-62.623961-59.743963l-10.303993-75.167953c-30.623981-12.991992-59.519963-29.631981-86.175947-49.567969l-70.047956 28.575982a62.591961 62.591961 0 0 1-82.975948-24.479984L8.416315 563.967568A62.655961 62.655961 0 0 1 28.928302 479.99962l59.679963-46.463971a398.303751 398.303751 0 0 1 0-99.455938L28.800302 287.83974a62.591961 62.591961 0 0 1-20.319987-84.095947l87.423945-151.519906a63.35996 63.35996 0 0 1 38.111976-29.279981c15.039991-4.031997 31.071981-2.271999 44.863972 4.959997l69.983956 28.607982a411.711743 411.711743 0 0 1 86.175947-49.567969l10.303993-75.103953A62.527961 62.527961 0 0 1 407.936065-128h87.391945v297.663814a214.367866 214.367866 0 0 0-213.983866 214.303866v-0.064z"  horiz-adv-x="1024" />

    
    <glyph glyph-name="gongzuofuzhu" unicode="&#58893;" d="M905.92 691.008L579.52 879.584C561.024 890.368 535.904 896 511.328 896c-24.64 0-49.728-5.632-68.704-16.416L116.16 691.008C78.752 669.44 48 616.16 48 572.608v-376.704c0-43.552 30.752-96.864 68.672-118.912l326.464-188.576c18.976-10.784 43.584-16.416 68.672-16.416 24.64 0 49.728 5.632 68.704 16.416l326.464 188.576c37.408 21.536 68.672 75.36 68.672 118.912V572.608c-1.024 43.552-32.288 96.864-69.696 118.4z m-127.072-131.744l-232.672-166.048v-281.888c0-24.064-10.784-44.064-35.392-44.064-24.064 0-35.36 19.488-35.36 44.064v282.4l-231.648 165.536c-20 14.368-29.728 34.368-15.36 54.336 14.336 20 36.384 16.928 56.352 3.072l226.56-161.92 227.04 161.92c19.968 14.368 42.016 16.928 56.352-3.072 13.856-19.968 4.096-40-15.872-54.336z"  horiz-adv-x="1024" />

    
    <glyph glyph-name="nenghao" unicode="&#58894;" d="M502.816 896C795.392 667.488 941.76 472.48 941.76 310.848 941.728 68.48 745.248-128 502.848-128 260.48-128 64 68.48 64 310.848 64 472.416 210.24 667.552 502.816 896zM576 676.576L283.424 310.848l146.24 0.064v-292.64l292.64 365.76H576V676.544z"  horiz-adv-x="1024" />

    
    <glyph glyph-name="baojing" unicode="&#58895;" d="M501.568 598.88A256.544 256.544 0 0 1 245.024 342.4v-315.2h516.736v315.2a256.512 256.512 0 0 1-256.512 256.512h-3.68z m-297.824-153.632a41.792 41.792 0 0 1-32.736 49.184l-120.96 24.32a41.824 41.824 0 0 1-49.216-32.8 41.824 41.824 0 0 1 32.736-49.216l120.96-24.256a41.792 41.792 0 0 1 49.216 32.768zM176 725.536L253.088 629.12a41.824 41.824 0 0 1 65.28 52.256l-77.12 96.32a41.792 41.792 0 0 1-73.92-32.416c1.088-7.264 4.096-14.08 8.704-19.776z m332.608-36.48A41.792 41.792 0 0 1 551.36 729.92l-0.288 123.328a41.792 41.792 0 0 1-83.584 1.984l0.32-123.36a41.824 41.824 0 0 1 40.832-42.752h-0.032zM702.08 613.44a41.824 41.824 0 0 1 58.976 3.776l81.504 92.64a41.824 41.824 0 0 1-62.72 55.232l-81.536-92.64a41.76 41.76 0 0 1 3.776-59.008z m304.224-151.136a41.76 41.76 0 0 1-47.616 35.008l-121.984-18.56a41.792 41.792 0 1 1 12.576-82.624l121.984 18.56a41.792 41.792 0 0 1 35.04 47.616z m-153.28-530.784A59.52 59.52 0 0 0 793.44-128H200.224a59.52 59.52 0 1 0 0 119.04h593.248a59.52 59.52 0 0 0 59.552-59.52z"  horiz-adv-x="1024" />

    
    <glyph glyph-name="weibaoguanli" unicode="&#58896;" d="M677.76 275.52a24.192 24.192 0 0 0 34.016 0l0.288 0.544 239.872-239.904 4.352-4.608a96.16 96.16 0 0 0-140.32-131.392l-239.904 239.616a24.192 24.192 0 0 0 0 34.016zM730.816 895.296c48.32 5.952 65.44-27.008 37.568-55.136l-52.768-52.48a143.872 143.872 0 0 1 203.456-203.456l54.4 52.48c27.2 29.12 62.016 9.792 53.856-41.888a262.72 262.72 0 0 0-314.4-217.6L271.424-63.936a143.872 143.872 0 0 0-203.2 203.456L508.064 579.84a263.04 263.04 0 0 0 217.6 314.688zM203.968 71.488a47.872 47.872 0 1 1-0.256-67.712l3.2 3.52c7.04 8.576 10.944 19.328 10.944 30.496l-0.224 4.704a47.872 47.872 0 0 1-13.664 28.992zM67.712 851.584l118.592-84.608 37.28-71.264 166.176-166.176-67.744-67.712L155.84 628 84.576 665.248 0 783.84l67.712 67.744z"  horiz-adv-x="1056" />

    
    <glyph glyph-name="shebeiguanli" unicode="&#58897;" d="M677.055484 457.982169c-27.999913 0-50.719842 22.719929-50.719841 50.751841a120.511623 120.511623 0 1 1-240.991247 0 50.719842 50.719842 0 0 0-101.471683 0 221.951306 221.951306 0 1 0 443.934613 0c0-28.031912-22.719929-50.719842-50.751842-50.719841z m155.263515 0c-28.031912 0-50.751841 22.719929-50.751841 50.751841a275.999138 275.999138 0 1 1-551.742276 0 50.719842 50.719842 0 1 0-101.439683 0C122.913216 717.149359 287.488702 890.492817 495.90405 895.8688 704.319399 901.276784 877.662857 736.701298 883.038841 528.317949c0.191999-6.52798 0.191999-13.055959 0-19.583939 0-27.999913-22.719929-50.719842-50.719842-50.719841z m118.975628-174.783454H558.079856v174.783454a50.719842 50.719842 0 1 1-101.439683 0v-174.783454H63.393402A63.423802 63.423802 0 0 1 0.0016 219.838913v-284.383111C0.0016-99.616089 28.385511-128 63.425402-128h887.869225a63.423802 63.423802 0 0 1 63.423802 63.423802v284.383111a63.423802 63.423802 0 0 1-63.423802 63.391802zM156.481111 26.751516a50.719842 50.719842 0 1 0 50.751841 50.719842c0-27.999913-22.719929-50.719842-50.751841-50.719842z m153.72752 0a50.719842 50.719842 0 1 0 50.751841 50.719842c0-27.999913-22.719929-50.719842-50.751841-50.719842z"  horiz-adv-x="1024" />

    
    <glyph glyph-name="beipinbeijian" unicode="&#58898;" d="M272.648452 853.53334H48.048383c-26.495064 0-48.062303-6.143783-48.062303-13.759515V-114.240486c0-7.64773 21.567238-13.759514 48.062303-13.759514H272.648452c26.559062 0 48.126301 6.111784 48.126301 13.759514V839.773825c0 7.615731-21.567238 13.759514-48.126301 13.759515z m17.375387-865.025454l-3.519876-5.631801H46.416441l-3.487877 5.631801v26.495064l3.487877 5.599802h240.119521l3.519875-5.599802v-26.527063z m0 582.283438l-3.519876-5.695799H46.416441l-3.487877 5.695799v26.431067l3.487877 5.6638h240.119521l3.519875-5.6638v-26.431067z m0 116.475887l-3.519876-5.6638H46.416441l-3.487877 5.6638v26.399068l3.487877 5.6638h240.119521l3.519875-5.6638v-26.399068zM994.862949 10.907095L629.051867 891.995981c-2.879898 7.039751-25.183111 4.479842-49.758243-5.727797l-207.28868-86.10896c-24.511134-10.175641-42.078514-24.095149-39.134618-31.166899l365.843081-881.088887c2.879898-6.975754 25.183111-4.415844 49.694245 5.759797l207.320679 86.07696c24.575132 10.175641 42.142512 24.127148 39.166617 31.1669zM430.946862 644.644716l-10.111643 24.383139 1.055963 6.527769 221.752169 92.092748 5.375811-3.903862 10.111642-24.383139-1.023963-6.591767-221.75217-92.02875-5.407809 3.903862z m44.670423-107.580201l-10.143642 24.447137 1.055963 6.463771 221.784168 92.092748 5.343811-3.839864 10.143642-24.415138-1.023964-6.591767-221.784168-92.060749-5.37581 3.903862z m450.480092-449.584124l-221.816167-92.060749-5.37581 3.903862-10.111643 24.415138 1.023964 6.527769 221.752169 92.092748 5.37581-3.871863 10.143642-24.415138-0.991965-6.591767z"  horiz-adv-x="1024" />

    
    <glyph glyph-name="moshikongzhi" unicode="&#58899;" d="M640.0006 831.8081v-319.6155c0-0.447999-0.288-0.192 0.192-0.192h319.6155c0.479999 0 0.192-0.288 0.192 0.192V831.8081c0 0.479999 0.288 0.192-0.192 0.192h-319.6155c-0.447999 0-0.192 0.288-0.192-0.192z m-63.9999 0C576.0007 867.264045 604.032656 896 640.1926 896h319.6155C995.264045 896 1024 867.968044 1024 831.8081v-319.6155A63.7439 63.7439 0 0 0 959.8081 448.0007h-319.6155A63.7439 63.7439 0 0 0 576.0007 512.1926V831.8081z m-575.9991 0C0.0016 867.264045 28.033556 896 64.1935 896h319.6155C419.264945 896 448.0009 867.968044 448.0009 831.8081v-319.6155A63.7439 63.7439 0 0 0 383.809 448.0007H64.1935A63.7439 63.7439 0 0 0 0.0016 512.1926V831.8081z m0-575.9991C0.0016 291.264945 28.033556 320.0009 64.1935 320.0009h319.6155c35.455945 0 64.1919-28.031956 64.1919-64.1919v-319.6155A63.7439 63.7439 0 0 0 383.809-127.9984H64.1935A63.7439 63.7439 0 0 0 0.0016-63.8065v319.6155z m575.9991 0c0 35.455945 28.031956 64.1919 64.1919 64.1919h319.6155c35.455945 0 64.1919-28.031956 64.1919-64.1919v-319.6155A63.7439 63.7439 0 0 0 959.8081-127.9984h-319.6155A63.7439 63.7439 0 0 0 576.0007-63.8065v319.6155z"  horiz-adv-x="1024" />

    
    <glyph glyph-name="jiankong" unicode="&#58900;" d="M340.64 220.48c42.368-19.52 88.864-31.552 137.952-34.688L431.104-128l-202.336 69.44z m324.384-0.896l122.88-278.144-320.896-62.56 12.064 306.912c8.288-0.512 16.384-1.184 24.672-1.184a390.4 390.4 0 0 1 161.28 34.976zM503.84 896c189.824 0 343.744-150.4 343.744-335.872 0-185.504-153.92-335.936-343.744-335.936C313.92 224.192 160 374.624 160 560.128 160 745.6 313.92 896 503.84 896z m58.496-136.576c-120.064 0-217.472-95.168-217.472-212.544 0-117.344 97.408-212.48 217.472-212.48 120.064 0 217.536 95.136 217.536 212.48 0 117.376-97.472 212.544-217.536 212.544z m15.872-39.68c96.416 0 174.624-76.416 174.624-170.688 0-94.208-78.208-170.624-174.624-170.624-96.544 0-174.688 76.416-174.688 170.624 0 94.272 78.144 170.688 174.72 170.688z m40.96-84.992c-49.728 0-89.92-39.296-89.92-87.872 0-48.544 40.192-87.872 89.92-87.872 49.664 0 89.952 39.36 89.952 87.872 0 48.576-40.288 87.872-89.92 87.872z"  horiz-adv-x="1024" />

    
    <glyph glyph-name="zhuye" unicode="&#58901;" d="M650.25198-126.190545c0 50.779938 0.159987 118.902488 0 166.706664-0.223982 38.812895-8.351332 47.196224-46.492281 47.356211a22351.939845 22351.939845 0 0 1-170.130389 0c-38.87689-0.12799-46.268299-7.039437-46.87625-46.87625-0.735941-47.740181-0.191985-115.830734-0.191985-165.74674-10.719142-1.215903-18.238541-2.815775-25.725942-2.847772-51.387889-0.191985-102.807775-0.639949-154.195664 0.031997-60.987121 0.799936-75.385969 16.062715-74.970003 75.833934 0.383969 54.011679-0.447964 283.881289 1.023919 337.892968 0.319974 10.719142 5.951524 24.190065 13.758899 31.453484 102.487801 95.320374 205.647548 189.904808 308.967282 284.265259 41.2447 37.62899 89.912807 38.076954 131.189505 0.063995 103.607711-95.416367 206.607471-191.472682 309.159268-287.976962 7.231421-6.815455 12.25502-19.518439 12.447004-29.565635 0.25598-13.054956 1.407887-245.644348 0.415966-345.956324-0.383969-37.501-18.87849-62.586993-53.563714-63.898888-67.066635-2.4958-134.261259-0.735941-204.783618-0.735941zM508.631309 895.99968c50.523958 0.095992 76.793856-16.638669 100.471963-39.548836 91.00072-88.12095 182.193425-176.113911 273.258139-264.202864 42.044636-40.636749 83.993281-81.433485 125.941925-122.166227 4.447644-4.319654 8.863291-8.703304 12.958963-13.37493 23.358131-26.429886 26.49388-54.811615 8.639309-77.049836-18.782497-23.422126-56.507479-28.893689-84.569235-11.679065a129.781617 129.781617 0 0 0-20.574354 16.606671 199339.25286 199339.25286 0 0 0-310.823134 294.24846c-76.601872 72.730182-105.911527 73.306136-183.313335 1.439885-103.223742-95.896328-205.615551-192.688585-309.639229-287.688985-14.654828-13.438925-35.677146-22.62219-55.291576-27.197824-25.757939-5.951524-47.00424 7.103432-59.00328 30.845532-12.031038 23.838093-7.263419 46.844252 9.727222 66.650668 9.759219 11.391089 21.2463 21.310295 32.25342 31.581474 127.509799 119.25446 255.211583 238.25294 382.529397 357.731381C457.915367 877.185185 487.00104 895.615711 508.631309 895.99968z"  horiz-adv-x="1055" />

    
    <glyph glyph-name="xuanzhuan" unicode="&#58889;" d="M450.261024 896c38.094922 0 75.43113-37.914528 104.203938-104.644311 32.354155-75.049119 54.043855-185.052187 61.376331-327.748974a21.222798 21.222798 0 0 0-42.392539-2.175337c-7.088415 138.033078-27.833699 243.229181-57.964766 313.121161C492.701314 827.407917 466.947449 853.554404 450.261024 853.554404c-6.090943 0-20.209409-13.747067-37.654549-43.968331l-2.440622-4.292311c-19.631088-35.060062-41.681575-87.103668-65.939233-155.881451a21.222798 21.222798 0 0 0-40.031503 14.118466l4.950218 13.890321C362.122744 824.797513 404.616091 896 450.261024 896zM459.869646-125.87772c33.71772 0 60.824539 24.300104 85.952331 70.348269 20.718756 37.983503 41.384456 92.648124 66.947316 174.414259a21.222798 21.222798 0 0 1-40.514321 12.664705c-47.698238-152.591917-81.734301-214.981637-112.385326-214.981637-19.631088 0-51.937492 46.456705-87.57057 140.74429a21.222798 21.222798 0 1 1-39.70255-15.004518l2.525513-6.632125C376.368547-71.600415 415.020568-125.87772 459.869646-125.87772zM584.861314 331.484187L477.150309 443.514031a10.611399 10.611399 0 0 0 7.645513 17.965099h215.437927a10.611399 10.611399 0 0 0 7.650819-17.965099l-107.721617-112.029844a10.611399 10.611399 0 0 0-15.296331 0zM229.374143 237.801451l115.717306 103.742342a10.611399 10.611399 0 0 0 17.683896-8.271586l-7.518176-215.305285a10.611399 10.611399 0 0 0-18.219772-7.014134l-108.19913 111.562943a10.611399 10.611399 0 0 0 0.53057 15.28572zM442.329003 531.859233a21.222798 21.222798 0 0 0 3.798881-42.270508l-16.633368-1.538652c-124.376207-11.79457-219.178446-27.907979-284.077762-48.16514l-2.843855-0.901969C80.358267 419.187399 50.237811 396.74429 48.14206 375.813306c-4.175585-41.745244 27.403938-74.932394 102.044518-100.092021a21.222798 21.222798 0 0 0-13.556062-40.217202C45.372485 266.250611-0.633235 314.601451 5.908692 380.031337c8.038135 80.40257 152.188684 126.291565 436.420311 151.827896zM762.915283 489.058155a21.222798 21.222798 0 0 0 25.467357 15.879959c155.26599-36.025699 232.86715-85.320953 224.74943-155.541886-9.842073-85.167088-130.822632-132.732684-319.350051-153.403689l-8.388311-0.896663c-137.576788-14.229886-298.068891-10.362031-340.694881 6.356228a21.222798 21.222798 0 0 0 14.473948 39.888248l1.024-0.371399c35.144953-13.784207 196.119876-17.349637 328.963979-2.785492 167.755606 18.39486 275.408249 60.718425 281.812228 116.088705 4.499233 38.938528-56.877098 77.924808-192.183046 109.318632a21.222798 21.222798 0 0 0-15.874653 25.467357z"  horiz-adv-x="1024" />

    
    <glyph glyph-name="celiang" unicode="&#58888;" d="M938.666667 213.333333H341.333333V810.666667C341.333333 859.019947 304.35328 896 256 896h-170.666667C36.980053 896 0 859.019947 0 810.666667v-796.44672C0-22.75328 14.219947-59.733333 42.666667-85.333333 68.266667-113.780053 105.24672-128 142.219947-128H938.666667c48.35328 0 85.333333 36.980053 85.333333 85.333333v170.666667c0 48.35328-36.980053 85.333333-85.333333 85.333333z m28.44672-256c0-17.066667-11.380053-28.44672-28.44672-28.44672h-142.219947v85.333334c0 17.066667-11.380053 28.44672-28.44672 28.44672s-28.44672-11.380053-28.44672-28.44672v-85.333334H625.780053v85.333334c0 17.066667-11.380053 28.44672-28.44672 28.44672s-28.44672-11.380053-28.44672-28.44672v-85.333334H455.113387v85.333334c0 17.066667-11.380053 28.44672-28.44672 28.44672s-28.44672-11.380053-28.44672-28.44672v-85.333334H284.44672v85.333334c0 17.066667-11.380053 28.44672-28.44672 28.44672s-28.44672-11.380053-28.44672-28.44672v-85.333334h-85.333333c-22.75328 0-45.50656 8.533333-59.733334 25.6-17.066667 17.066667-25.6 36.980053-25.6 59.733334v142.226773h85.333334c17.066667 0 28.44672 11.373227 28.44672 28.439893 0 17.066667-11.380053 28.44672-28.44672 28.44672h-85.333334V327.113387h85.333334c17.066667 0 28.44672 11.373227 28.44672 28.439893 0 17.066667-11.380053 28.44672-28.44672 28.44672h-85.333334V497.780053h85.333334c17.066667 0 28.44672 11.373227 28.44672 28.439894 0 17.066667-11.380053 28.44672-28.44672 28.44672h-85.333334V668.44672h85.333334c17.066667 0 28.44672 11.373227 28.44672 28.439893 0 17.066667-11.380053 28.44672-28.44672 28.44672h-85.333334V810.666667C56.886613 827.733333 68.266667 839.113387 85.333333 839.113387h170.666667c17.066667 0 28.44672-11.380053 28.44672-28.44672v-625.780054c0-17.066667 11.373227-28.439893 28.439893-28.439893H938.666667c17.066667 0 28.44672-11.380053 28.44672-28.44672v-170.666667z"  horiz-adv-x="1024" />

    
    <glyph glyph-name="feihangmanyou" unicode="&#58890;" d="M1024.1984 863.5008c-21.76-162.56-43.52-326.4-65.28-488.96l-57.6-433.92c-8.96-70.4-19.2-75.52-76.8-38.4-75.52 48.64-149.76 97.28-224 148.48-24.32 16.64-34.56 11.52-47.36-12.8-24.32-44.8-49.92-89.6-75.52-133.12-8.96-15.36-15.36-35.84-38.4-32-23.04 3.84-23.04 25.6-26.88 43.52-20.48 79.36-40.96 158.72-60.16 239.36-5.12 24.32-16.64 38.4-38.4 49.92-94.72 47.36-189.44 96-282.88 144.64-14.08 6.4-30.72 11.52-30.72 33.28 0 20.48 17.92 25.6 32 32 313.6 157.44 627.2 313.6 942.08 471.04 34.56 17.92 52.48 8.96 49.92-23.04z m-65.28-97.28c-10.24-1.28-12.8-8.96-16.64-14.08-131.84-190.72-263.68-381.44-396.8-570.88-12.8-19.2-8.96-26.88 7.68-38.4 90.88-60.16 181.76-120.32 271.36-180.48 19.2-12.8 25.6-12.8 29.44 12.8 24.32 186.88 49.92 375.04 75.52 561.92 10.24 76.8 19.2 152.32 29.44 229.12z m-204.8-198.4c-6.4 1.28-8.96 0-11.52-2.56-111.36-117.76-224-235.52-336.64-353.28-10.24-10.24-11.52-21.76-7.68-35.84 8.96-35.84 16.64-71.68 26.88-107.52 8.96-30.72 12.8-64 29.44-99.84 20.48 34.56 37.12 66.56 56.32 96 16.64 23.04 14.08 37.12-11.52 52.48-35.84 21.76-37.12 32-11.52 67.84l249.6 357.12c5.12 8.96 11.52 16.64 16.64 25.6z m99.84 202.24c-257.28-128-510.72-256-773.12-387.84 93.44-48.64 179.2-92.16 263.68-138.24 16.64-7.68 24.32 1.28 33.28 11.52 49.92 52.48 99.84 106.24 149.76 158.72 103.68 110.08 208.64 218.88 312.32 327.68 6.4 6.4 16.64 11.52 14.08 28.16z"  horiz-adv-x="1030" />

    
    <glyph glyph-name="fuwei" unicode="&#58891;" d="M512 896c282.771911 0 512-229.228089 512-512s-229.228089-512-512-512S0 101.228089 0 384 229.228089 896 512 896z m22.755556-45.795556V713.955556a22.755556 22.755556 0 1 0-45.511112 0V850.204444C247.569067 838.803911 53.475556 646.712889 40.510578 406.755556H193.422222a22.755556 22.755556 0 1 0 0-45.511112l-153.184711-0.011377c10.1888-242.574222 205.437156-437.600711 449.006933-449.097956V54.044444a22.755556 22.755556 0 1 0 45.511112 0v-141.903644c243.575467 11.491556 438.818133 206.518044 449.006933 449.092267L824.888889 361.244444a22.755556 22.755556 0 1 0 0 45.511112h158.600533C970.524444 646.712889 776.436622 838.798222 534.755556 850.204444zM512 475.022222c50.272711 0 91.022222-40.749511 91.022222-91.022222s-40.749511-91.022222-91.022222-91.022222-91.022222 40.749511-91.022222 91.022222 40.749511 91.022222 91.022222 91.022222z"  horiz-adv-x="1024" />

    
    <glyph glyph-name="xiaofang" unicode="&#58892;" d="M828.416 21.76l21.992727-21.992727C760.176485-79.751758 641.722182-128 512-128c-129.318788 0-247.435636 47.941818-337.551515 127.018667l21.992727 21.992727C280.901818-52.48 391.253333-96.969697 512-96.969697c121.153939 0 231.846788 44.796121 316.416 118.729697zM127.767273 722.40097l21.984969-21.992728C75.830303 615.850667 31.030303 505.157818 31.030303 384c0-122.554182 45.835636-234.39903 121.301333-319.332848l-21.981091-21.981091C49.291636 133.267394 0 252.877576 0 384c0 129.726061 48.244364 248.180364 127.767273 338.404848z m769.210182-0.853334C976.058182 631.435636 1024 513.318788 1024 384c0-130.715152-48.981333-249.984-129.590303-340.460606l-21.98497 21.981091C947.440485 150.349576 992.969697 261.85697 992.969697 384c0 120.746667-44.493576 231.098182-117.981091 315.558788l21.992727 21.992727z m-428.974546-4.759272c5.213091-1.489455 121.840485-40.610909 180.712727-213.500122 7.074909 15.274667 7.447273 32.41503 2.234182 55.144728-1.861818 8.572121 1.861818 17.512727 9.31297 21.981091a20.247273 20.247273 0 0 0 23.846788-2.234182c60.734061-53.282909 131.902061-194.497939 107.310545-321.183031-13.044364-66.319515-58.127515-155.372606-200.087273-204.555636-1.861818-0.744727-4.099879-1.117091-6.33406-1.117091-7.078788 0-14.157576 3.723636-17.885091 10.43394-4.844606 8.568242-2.982788 19.374545 4.844606 25.708606 33.163636 27.198061 49.18303 60.734061 47.689697 99.483151-1.861818 52.906667-36.887273 114.01697-91.655758 163.2-4.099879-37.632-23.102061-74.895515-56.265697-110.661818-26.825697-28.691394-39.866182-58.499879-38.74909-85.697939 1.117091-23.846788 13.785212-46.204121 36.887272-66.695758 6.706424-5.961697 8.940606-15.278545 5.21697-23.474424-3.355152-8.199758-11.923394-13.040485-20.867879-12.295758-100.972606 9.685333-156.121212 57.378909-184.064 95.383273-35.397818 47.693576-48.810667 108.427636-37.259636 165.810424 7.078788 33.904485 19.006061 63.340606 30.553212 91.655758 14.157576 34.653091 27.946667 67.444364 30.180848 105.821091 0.372364 8.572121 6.334061 15.64703 14.52994 18.257454 8.199758 2.606545 17.144242-0.372364 22.357333-7.078788 16.019394-20.867879 25.336242-41.735758 30.553212-64.089212 78.246788 109.917091 87.559758 188.536242 80.484849 236.974546-1.12097 7.078788 1.489455 14.157576 7.074909 18.629818 5.21697 4.472242 12.672 5.961697 19.378424 4.099879z m15.941818-40.925091c-0.775758-84.557576-43.054545-179.2-126.060606-281.6-5.430303-6.981818-14.739394-9.69697-23.272727-6.981818s-14.351515 10.084848-14.739394 19.00606c-0.775758 15.127273-2.327273 28.70303-5.042424 41.115152-6.206061-19.781818-13.963636-38.4-21.721212-57.018182-11.248485-27.539394-23.272727-56.242424-29.478788-87.660606-9.69697-48.09697 1.551515-98.521212 31.030303-138.472727 18.618182-25.212121 51.587879-55.466667 107.054545-72.145455-8.533333 16.290909-13.575758 33.745455-14.351515 51.587879-1.939394 39.951515 15.515152 81.842424 51.587879 120.242424 39.951515 43.054545 55.078788 84.945455 45.381818 128-1.939394 8.533333 1.551515 17.454545 8.921212 22.49697 7.369697 5.042424 17.066667 4.654545 24.048485-0.387879 87.660606-61.672727 146.230303-152.824242 149.333333-231.563636 0.775758-23.660606-3.10303-46.545455-11.636363-67.49091 58.569697 36.072727 94.642424 84.945455 106.666666 146.618182 17.454545 89.212121-18.618182 188.89697-60.896969 250.957576-5.430303-24.048485-18.618182-44.606061-40.339394-64-5.430303-5.042424-13.187879-6.593939-20.557576-4.654545-6.981818 2.327273-12.8 7.757576-14.351515 15.127272-34.521212 131.878788-102.4 192-141.575758 216.824243zM512 896c131.122424 0 250.732606-49.291636 341.313939-130.350545l-21.981091-21.981091C746.39903 819.134061 634.554182 864.969697 512 864.969697c-122.14303 0-233.650424-45.529212-318.479515-120.54497l-21.981091 21.98497C262.016 847.018667 381.288727 896 512 896z"  horiz-adv-x="1024" />

    
    <glyph glyph-name="jianzhu" unicode="&#58887;" d="M894.72-67.2h96.256v-60.544H715.84V821.312L303.104 686.4v41.856L757.12 895.744l137.6-116.288v-846.72zM160.96 193.28v93.056l215.552 55.808v-107.008L160.96 193.28z m0-321.024v97.728l215.552 13.952v-111.68H160.96z m0 162.816v93.056l215.552 37.248v-107.008L160.96 35.072z m0 321.024V453.76l215.552 69.76v-111.616L160.96 356.096zM614.976 635.2v-762.88h-178.88v753.6L92.16 514.24v-641.92H32.512V546.816l458.624 162.752 123.84-74.432z"  horiz-adv-x="1024" />

    
    <glyph glyph-name="3D" unicode="&#58885;" d="M433.258 896L18.22 679.265l3.708-6.78-4.273 0.883v-666.377l558.963-130.295 429.727 233.225V787.068L433.258 896zM57.98 664.788L437.954 863.02l518.18-102.4-380.928-205.824L58.015 664.788zM47.316 30.25999999999999V637.069l501.3-106.355v-614.4L47.352 30.260999999999967z"  horiz-adv-x="1024" />

    


  </font>
</defs>
</svg>
